<svg aria-hidden="true" style="position: absolute; width: 0; height: 0; overflow: hidden;" version="1.1" xmlns="http://www.w3.org/2000/svg" xmlns:xlink="http://www.w3.org/1999/xlink">
<defs>
<symbol id="icon-pre-btn" viewBox="0 0 32 32">
<path fill="#fff" style="fill: var(--color1, #fff)" d="M0 16c0 8.837 7.163 16 16 16s16-7.163 16-16c0-8.837-7.163-16-16-16s-16 7.163-16 16z"></path>
<path fill="#000" style="fill: var(--color2, #000)" d="M18.728 12.328l-1.128-1.128-4.8 4.8 4.8 4.8 1.128-1.128-3.664-3.672 3.664-3.672z"></path>
</symbol>
<symbol id="icon-prev-btn" viewBox="0 0 32 32">
<path fill="#fff" style="fill: var(--color1, #fff)" d="M0 16c0 8.837 7.163 16 16 16s16-7.163 16-16c0-8.837-7.163-16-16-16s-16 7.163-16 16z"></path>
<path fill="#000" style="fill: var(--color2, #000)" d="M18.728 12.328l-1.128-1.128-4.8 4.8 4.8 4.8 1.128-1.128-3.664-3.672 3.664-3.672z"></path>
</symbol>
<symbol id="icon-next-btn" viewBox="0 0 32 32">
<path fill="#ff6b09" style="fill: var(--color3, #ff6b09)" d="M32 16c0 8.837-7.163 16-16 16s-16-7.163-16-16c0-8.837 7.163-16 16-16s16 7.163 16 16z"></path>
<path fill="#fff" style="fill: var(--color1, #fff)" d="M13.272 12.328l1.128-1.128 4.8 4.8-4.8 4.8-1.128-1.128 3.664-3.672-3.664-3.672z"></path>
</symbol>
<symbol id="icon-add-elipse" viewBox="0 0 32 32">
<path fill="#ff6b09" style="fill: var(--color3, #ff6b09)" d="M32 16c0 8.837-7.163 16-16 16s-16-7.163-16-16c0-8.837 7.163-16 16-16s16 7.163 16 16z"></path>
<path fill="none" stroke="#fff" style="stroke: var(--color1, #fff)" stroke-linejoin="miter" stroke-linecap="butt" stroke-miterlimit="4" stroke-width="1.28" d="M16 11.52v8.96"></path>
<path fill="none" stroke="#fff" style="stroke: var(--color1, #fff)" stroke-linejoin="miter" stroke-linecap="butt" stroke-miterlimit="4" stroke-width="1.28" d="M11.52 16h8.96"></path>
</symbol>
<symbol id="icon-serch" viewBox="0 0 32 32">
<path d="M22.222 19.556h-1.404l-0.498-0.48c1.742-2.027 2.791-4.658 2.791-7.52 0-6.382-5.173-11.556-11.556-11.556s-11.556 5.173-11.556 11.556c0 6.382 5.173 11.556 11.556 11.556 2.862 0 5.493-1.049 7.52-2.791l0.48 0.498v1.404l8.889 8.871 2.649-2.649-8.871-8.889zM11.556 19.556c-4.427 0-8-3.573-8-8s3.573-8 8-8c4.427 0 8 3.573 8 8s-3.573 8-8 8z"></path>
</symbol>
<symbol id="icon-share" viewBox="0 0 32 32">
<path d="M25.436 21.333c-1.623 0-3.079 0.73-4.058 1.878l-9.632-5.955c0.098-0.403 0.151-0.824 0.151-1.256s-0.053-0.853-0.151-1.256l9.632-5.955c0.979 1.148 2.434 1.878 4.058 1.878 2.941 0 5.333-2.393 5.333-5.333s-2.393-5.333-5.333-5.333-5.333 2.393-5.333 5.333c0 0.433 0.053 0.853 0.151 1.256l-9.632 5.955c-0.979-1.148-2.434-1.878-4.058-1.878-2.941 0-5.333 2.393-5.333 5.333s2.393 5.333 5.333 5.333c1.624 0 3.079-0.73 4.058-1.878l9.631 5.955c-0.098 0.403-0.151 0.824-0.151 1.256 0 2.941 2.392 5.333 5.333 5.333s5.333-2.393 5.333-5.333c0-2.941-2.393-5.333-5.333-5.333zM25.436 2.462c1.584 0 2.872 1.288 2.872 2.872s-1.288 2.872-2.872 2.872c-1.583 0-2.872-1.288-2.872-2.872s1.288-2.872 2.872-2.872zM6.564 18.872c-1.583 0-2.872-1.288-2.872-2.872s1.288-2.872 2.872-2.872c1.583 0 2.872 1.288 2.872 2.872s-1.288 2.872-2.872 2.872zM25.436 29.538c-1.583 0-2.872-1.288-2.872-2.872s1.288-2.872 2.872-2.872c1.584 0 2.872 1.288 2.872 2.872s-1.288 2.872-2.872 2.872z"></path>
</symbol>
<symbol id="icon-user-profile" viewBox="0 0 32 32">
<path d="M28.832 31.17h-3.088c0-5.14-4.37-9.321-9.744-9.321s-9.743 4.182-9.743 9.321h-3.088c0-6.822 5.758-12.368 12.832-12.368 7.073 0 12.831 5.545 12.831 12.368z"></path>
<path d="M16.001 17.812c-4.668 0-8.467-3.751-8.467-8.356-0.002-4.607 3.798-8.356 8.467-8.356 4.671 0 8.471 3.748 8.471 8.356s-3.8 8.356-8.471 8.356zM16.001 4.147c-2.968 0-5.381 2.381-5.381 5.309s2.413 5.309 5.381 5.309c2.969 0 5.383-2.381 5.383-5.309s-2.416-5.309-5.383-5.309z"></path>
</symbol>
<symbol id="icon-delete-file" viewBox="0 0 32 32">
<path fill="#bbb" style="fill: var(--color5, #bbb)" d="M20.8 0h-19.2v32h28.8v-22.4l-9.6-9.6zM20.8 4.528l5.072 5.072h-5.072v-5.072zM27.2 28.8h-22.4v-25.6h12.8v9.6h9.6v16z"></path>
<path fill="#bbb" style="fill: var(--color5, #bbb)" d="M22.016 15.473l-2.256-2.272-3.728 3.728-3.904-3.904-2.256 2.272 3.888 3.888-3.696 3.712 2.256 2.256 3.712-3.696 3.728 3.728 2.256-2.272-3.728-3.728 3.728-3.712z"></path>
</symbol>
<symbol id="icon-menu-clouse" viewBox="0 0 32 32">
<path d="M32 3.223l-3.223-3.223-12.777 12.777-12.777-12.777-3.223 3.223 12.777 12.777-12.777 12.777 3.223 3.223 12.777-12.777 12.777 12.777 3.223-3.223-12.777-12.777 12.777-12.777z"></path>
</symbol>
<symbol id="icon-menu" viewBox="0 0 51 32">
<path d="M1.6 32h48v-5.333h-48v5.333zM1.6 18.667h48v-5.333h-48v5.333zM1.6 0v5.333h48v-5.333h-48z"></path>
</symbol>
<symbol id="icon-logout" viewBox="0 0 32 32">
<path d="M3.236 21.654v7.111h25.529v-25.529h-25.529v7.111h-2.916v-6.791c0-1.788 1.448-3.236 3.236-3.236h24.889c1.788 0 3.236 1.448 3.236 3.236v24.889c0 1.788-1.448 3.236-3.235 3.236h-24.889c-1.788 0-3.236-1.448-3.236-3.236v-6.791h2.916zM17.964 14.542l-4.915-4.916 2.063-2.063 8.436 8.436-8.436 8.436-2.063-2.063 4.915-4.916h-17.644v-2.915h17.644z"></path>
</symbol>
<symbol id="icon-logo" viewBox="0 0 121 32">
<path d="M1.087 1.969h6.38v22.37h13.824v5.199h-20.204v-27.569zM38.534 30.011c-2.862 0-5.448-0.617-7.759-1.851-2.284-1.234-4.083-2.927-5.396-5.081-1.287-2.179-1.93-4.621-1.93-7.326s0.643-5.133 1.93-7.286c1.313-2.179 3.111-3.886 5.396-5.12 2.311-1.234 4.897-1.851 7.759-1.851s5.435 0.617 7.719 1.851c2.284 1.234 4.083 2.941 5.396 5.12 1.313 2.153 1.969 4.582 1.969 7.286s-0.657 5.146-1.969 7.326c-1.313 2.153-3.111 3.847-5.396 5.081s-4.857 1.851-7.719 1.851zM38.534 24.576c1.628 0 3.098-0.368 4.411-1.103 1.313-0.761 2.337-1.812 3.072-3.151 0.761-1.339 1.142-2.862 1.142-4.569s-0.381-3.23-1.142-4.569c-0.735-1.339-1.759-2.376-3.072-3.111-1.313-0.761-2.783-1.142-4.411-1.142s-3.098 0.381-4.411 1.142c-1.313 0.735-2.35 1.772-3.111 3.111-0.735 1.339-1.103 2.862-1.103 4.569s0.367 3.23 1.103 4.569c0.761 1.339 1.799 2.389 3.111 3.151 1.313 0.735 2.783 1.103 4.411 1.103zM77.83 15.321h5.829v11.185c-1.497 1.129-3.23 1.996-5.199 2.599s-3.951 0.906-5.947 0.906c-2.862 0-5.435-0.604-7.719-1.812-2.284-1.234-4.083-2.928-5.396-5.081-1.287-2.179-1.93-4.634-1.93-7.365s0.643-5.172 1.93-7.326c1.313-2.179 3.124-3.873 5.435-5.081 2.311-1.234 4.91-1.851 7.798-1.851 2.415 0 4.608 0.407 6.577 1.221s3.623 1.996 4.962 3.545l-4.096 3.781c-1.969-2.074-4.345-3.111-7.129-3.111-1.759 0-3.321 0.368-4.687 1.103s-2.429 1.772-3.19 3.111c-0.761 1.339-1.142 2.875-1.142 4.608 0 1.707 0.381 3.23 1.142 4.569s1.812 2.389 3.151 3.151c1.365 0.735 2.914 1.103 4.647 1.103 1.838 0 3.492-0.394 4.962-1.182v-8.074zM103.725 30.011c-2.862 0-5.448-0.617-7.759-1.851-2.284-1.234-4.083-2.927-5.396-5.081-1.286-2.179-1.93-4.621-1.93-7.326s0.643-5.133 1.93-7.286c1.313-2.179 3.111-3.886 5.396-5.12 2.311-1.234 4.897-1.851 7.759-1.851s5.435 0.617 7.72 1.851c2.284 1.234 4.083 2.941 5.396 5.12 1.313 2.153 1.969 4.582 1.969 7.286s-0.656 5.146-1.969 7.326c-1.313 2.153-3.111 3.847-5.396 5.081s-4.858 1.851-7.72 1.851zM103.725 24.576c1.628 0 3.098-0.368 4.411-1.103 1.313-0.761 2.337-1.812 3.072-3.151 0.761-1.339 1.142-2.862 1.142-4.569s-0.381-3.23-1.142-4.569c-0.735-1.339-1.759-2.376-3.072-3.111-1.313-0.761-2.783-1.142-4.411-1.142s-3.098 0.381-4.411 1.142c-1.313 0.735-2.35 1.772-3.111 3.111-0.735 1.339-1.103 2.862-1.103 4.569s0.368 3.23 1.103 4.569c0.762 1.339 1.799 2.389 3.111 3.151 1.313 0.735 2.783 1.103 4.411 1.103z"></path>
</symbol>
<symbol id="icon-heart-like" viewBox="0 0 37 32">
<path fill="#878686" style="fill: var(--color4, #878686); stroke: var(--color4, #878686)" stroke="#878686" stroke-linejoin="miter" stroke-linecap="butt" stroke-miterlimit="4" stroke-width="0.6857" d="M18.286 29.714c-0.456 0-0.895-0.159-1.237-0.448-1.293-1.089-2.539-2.112-3.639-3.015l-0.006-0.005c-3.224-2.647-6.008-4.933-7.945-7.184-2.165-2.517-3.174-4.904-3.174-7.511 0-2.533 0.902-4.87 2.539-6.581 1.656-1.731 3.929-2.684 6.401-2.684 1.847 0 3.539 0.563 5.028 1.672 0.751 0.56 1.433 1.245 2.033 2.045 0.6-0.799 1.281-1.485 2.033-2.045 1.489-1.11 3.181-1.672 5.028-1.672 2.471 0 4.744 0.953 6.401 2.684 1.637 1.711 2.538 4.048 2.538 6.581 0 2.607-1.008 4.994-3.174 7.511-1.937 2.252-4.721 4.538-7.944 7.184-1.102 0.904-2.35 1.929-3.645 3.021-0.342 0.288-0.782 0.447-1.237 0.447zM11.225 4.092c-1.942 0-3.725 0.747-5.023 2.102-1.317 1.376-2.042 3.279-2.042 5.357 0 2.193 0.846 4.154 2.743 6.359 1.833 2.131 4.56 4.37 7.717 6.962l0.006 0.005c1.104 0.906 2.355 1.934 3.657 3.031 1.31-1.099 2.563-2.128 3.669-3.036 3.157-2.592 5.883-4.831 7.717-6.962 1.896-2.205 2.742-4.166 2.742-6.359 0-2.078-0.725-3.981-2.042-5.357-1.297-1.356-3.081-2.102-5.023-2.102-1.422 0-2.728 0.436-3.881 1.295-1.028 0.766-1.743 1.734-2.163 2.411-0.216 0.348-0.596 0.556-1.016 0.556s-0.801-0.208-1.016-0.556c-0.419-0.677-1.135-1.646-2.163-2.411-1.153-0.859-2.459-1.295-3.881-1.295z"></path>
</symbol>
<symbol id="icon-google-symbol" viewBox="0 0 32 32">
<path fill="#2196f3" style="fill: var(--color6, #2196f3)" d="M31.743 13.038c0.142 0 0.258 0.115 0.258 0.258v2.704c0 1.012-0.094 2.002-0.274 2.962-1.395 7.457-7.964 13.092-15.839 13.038-8.836-0.061-15.907-7.2-15.887-16.036 0.019-8.82 7.176-15.964 16-15.964 4.323 0 8.246 1.715 11.126 4.501 0.104 0.101 0.107 0.266 0.004 0.369l-3.826 3.826c-0.099 0.098-0.258 0.101-0.359 0.005-1.808-1.721-4.253-2.777-6.946-2.777-5.561 0-10.039 4.446-10.076 10.007-0.038 5.597 4.488 10.146 10.076 10.146 4.534 0 8.369-2.995 9.634-7.115h-9.376c-0.142 0-0.258-0.115-0.258-0.258v-5.408c0-0.142 0.115-0.258 0.258-0.258l15.485 0z"></path>
<path fill="#1e88e5" style="fill: var(--color7, #1e88e5)" d="M31.742 13.038h-1.932c0.142 0 0.258 0.115 0.258 0.258v2.704c0 1.012-0.094 2.002-0.274 2.962-1.331 7.114-7.371 12.57-14.761 13.009 0.283 0.017 0.567 0.026 0.854 0.028 7.874 0.054 14.444-5.581 15.838-13.038 0.18-0.96 0.274-1.95 0.274-2.962v-2.704c0-0.142-0.115-0.258-0.258-0.258z"></path>
<path fill="#f44336" style="fill: var(--color8, #f44336)" d="M6.848 11.78l-4.859-3.511c2.726-4.931 7.979-8.269 14.012-8.269 4.323 0 8.246 1.715 11.126 4.501 0.104 0.101 0.107 0.266 0.004 0.369l-3.826 3.826c-0.098 0.098-0.257 0.101-0.358 0.005-1.808-1.721-4.253-2.777-6.946-2.777-4.058 0-7.556 2.399-9.152 5.857z"></path>
<path fill="#e53935" style="fill: var(--color9, #e53935)" d="M5.445 10.767l1.403 1.014c1.457-3.156 4.499-5.429 8.104-5.802 0.027-0.003 0.053-0.006 0.081-0.009-0.317-0.030-0.639-0.046-0.964-0.046-3.666 0-6.861 1.933-8.624 4.843z"></path>
<path fill="#e53935" style="fill: var(--color9, #e53935)" d="M25.194 4.501c0.104 0.101 0.107 0.266 0.004 0.369l-3.105 3.105c0.297 0.226 0.582 0.468 0.852 0.726 0.101 0.096 0.26 0.094 0.359-0.005l3.826-3.826c0.102-0.102 0.1-0.268-0.004-0.369-2.88-2.786-6.802-4.501-11.126-4.501-0.324 0-0.646 0.011-0.966 0.030 3.94 0.235 7.496 1.894 10.16 4.471z"></path>
<path fill="#4caf50" style="fill: var(--color10, #4caf50)" d="M27.737 26.874c-2.922 3.153-7.099 5.126-11.737 5.126-6.264 0-11.687-3.6-14.314-8.844l4.961-3.4c1.489 3.704 5.116 6.32 9.353 6.32 2.659 0 5.078-1.030 6.878-2.713l4.859 3.51z"></path>
<path fill="#43a047" style="fill: var(--color11, #43a047)" d="M6.647 19.756l-1.463 1.003c1.699 3.165 5.040 5.318 8.884 5.318 0.325 0 0.646-0.016 0.964-0.046-3.816-0.364-7.011-2.855-8.385-6.274z"></path>
<path fill="#43a047" style="fill: var(--color11, #43a047)" d="M16 32c4.638 0 8.815-1.974 11.737-5.126l-1.19-0.86c-2.743 3.414-6.859 5.679-11.51 5.957 0.319 0.019 0.64 0.029 0.963 0.029z"></path>
<path fill="#ffc107" style="fill: var(--color12, #ffc107)" d="M5.924 16c0 1.328 0.257 2.595 0.724 3.756l-4.961 3.4c-1.079-2.153-1.686-4.584-1.686-7.156 0-2.804 0.721-5.439 1.988-7.731l4.859 3.511c-0.593 1.283-0.924 2.713-0.924 4.22z"></path>
<path fill="#ffb300" style="fill: var(--color13, #ffb300)" d="M5.184 20.759l1.463-1.003c-0.467-1.161-0.724-2.429-0.724-3.756 0-1.507 0.331-2.937 0.924-4.22l-1.403-1.014c-0.911 1.504-1.44 3.269-1.452 5.164-0.012 1.747 0.421 3.392 1.192 4.829z"></path>
</symbol>
<symbol id="icon-favorite-heart-button" viewBox="0 0 32 32">
<path fill="#ff6b09" style="fill: var(--color3, #ff6b09)" d="M16 30.72l-2.24-2.24c-8.32-7.36-13.76-12.32-13.76-18.4 0-4.96 3.84-8.8 8.8-8.8 2.72 0 5.44 1.28 7.2 3.36 1.76-2.080 4.48-3.36 7.2-3.36 4.96 0 8.8 3.84 8.8 8.8 0 6.080-5.44 11.040-13.76 18.4l-2.24 2.24z"></path>
</symbol>
<symbol id="icon-clear-filter" viewBox="0 0 40 32">
<path d="M8 16h-8l10 10 10-10h-8c0-6.62 5.38-12 12-12s12 5.38 12 12c0 6.62-5.38 12-12 12v4c8.84 0 16-7.16 16-16s-7.16-16-16-16c-8.84 0-16 7.16-16 16z"></path>
</symbol>
<symbol id="icon-orange-heart" viewBox="0 0 32 32">
<path fill="#ff6b09" style="fill: var(--color1, #ff6b09)" d="M16 30.72l-2.24-2.24c-8.32-7.36-13.76-12.32-13.76-18.4 0-4.96 3.84-8.8 8.8-8.8 2.72 0 5.44 1.28 7.2 3.36 1.76-2.080 4.48-3.36 7.2-3.36 4.96 0 8.8 3.84 8.8 8.8 0 6.080-5.44 11.040-13.76 18.4l-2.24 2.24z"></path>
</symbol>
<symbol id="icon-copyright" viewBox="0 0 32 32">
<path d="M13.12 14.29c0.075-0.495 0.24-0.93 0.45-1.305s0.51-0.69 0.885-0.93c0.36-0.225 0.81-0.33 1.365-0.345 0.345 0.015 0.66 0.075 0.945 0.195 0.3 0.135 0.57 0.315 0.78 0.54s0.375 0.495 0.51 0.795c0.135 0.3 0.195 0.63 0.21 0.96h2.685c-0.030-0.705-0.165-1.35-0.42-1.935s-0.6-1.095-1.050-1.515c-0.45-0.42-0.99-0.75-1.62-0.99s-1.32-0.345-2.085-0.345c-0.975 0-1.83 0.165-2.55 0.51s-1.32 0.795-1.8 1.38c-0.48 0.585-0.84 1.26-1.065 2.040s-0.36 1.59-0.36 2.46v0.405c0 0.87 0.12 1.68 0.345 2.46s0.585 1.455 1.065 2.025c0.48 0.57 1.080 1.035 1.8 1.365s1.575 0.51 2.55 0.51c0.705 0 1.365-0.12 1.98-0.345s1.155-0.54 1.62-0.945c0.465-0.405 0.84-0.87 1.11-1.41s0.435-1.11 0.45-1.725h-2.685c-0.015 0.315-0.090 0.6-0.225 0.87s-0.315 0.495-0.54 0.69c-0.225 0.195-0.48 0.345-0.78 0.45-0.285 0.105-0.585 0.135-0.9 0.15-0.54-0.015-0.99-0.12-1.335-0.345-0.375-0.24-0.675-0.555-0.885-0.93s-0.375-0.825-0.45-1.32c-0.075-0.495-0.12-1.005-0.12-1.5v-0.405c0-0.525 0.045-1.020 0.12-1.515zM16 1c-8.28 0-15 6.72-15 15s6.72 15 15 15c8.28 0 15-6.72 15-15s-6.72-15-15-15zM16 28c-6.615 0-12-5.385-12-12s5.385-12 12-12c6.615 0 12 5.385 12 12s-5.385 12-12 12z"></path>
</symbol>
</defs>
</svg>
